<?xml version="1.0" standalone="no"?>
<!DOCTYPE svg PUBLIC "-//W3C//DTD SVG 20010904//EN"
 "http://www.w3.org/TR/2001/REC-SVG-20010904/DTD/svg10.dtd">
<svg version="1.0" xmlns="http://www.w3.org/2000/svg"
 width="406.000000pt" height="234.000000pt" viewBox="0 0 406.000000 234.000000"
 preserveAspectRatio="xMidYMid meet">
<metadata>
Created by potrace 1.16, written by Peter Selinger 2001-2019
</metadata>
<g transform="translate(0.000000,234.000000) scale(0.100000,-0.100000)"
fill="#000000" stroke="none">
<path d="M0 2020 c0 -236 3 -320 12 -320 6 0 61 9 122 20 61 11 217 38 346 60
374 65 744 131 760 137 8 3 29 6 45 8 17 1 82 11 145 23 63 12 153 28 200 36
47 8 288 51 535 96 248 44 518 92 602 107 84 15 150 30 147 35 -7 11 5 48 16
48 5 0 7 -7 4 -15 -4 -8 -1 -15 6 -15 9 0 11 10 7 33 -3 17 -3 26 0 20 2 -7
11 -13 19 -13 23 0 16 -30 -11 -42 -41 -18 -28 -28 19 -14 l43 13 7 -96 c3
-53 6 -178 6 -278 l0 -183 46 7 c46 6 46 6 42 -23 -3 -28 -3 -28 -123 -46 -66
-10 -302 -44 -525 -77 -223 -33 -520 -76 -660 -96 -140 -20 -433 -63 -650 -95
-217 -33 -557 -82 -755 -110 -198 -28 -370 -54 -383 -57 -21 -5 -22 -10 -22
-99 0 -56 4 -94 10 -94 6 0 10 18 10 40 0 37 2 40 28 39 23 -2 24 -2 5 -6 -21
-4 -23 -11 -24 -66 -1 -34 -1 -65 0 -69 0 -5 -6 -8 -14 -8 -8 0 -15 -5 -15
-11 0 -8 13 -10 38 -5 20 3 45 6 55 6 15 0 17 11 17 80 0 50 -4 80 -11 80 -6
0 -4 7 5 15 8 8 17 15 20 15 3 0 6 -40 6 -90 0 -53 4 -90 10 -90 6 0 10 13 10
28 0 24 4 28 23 27 16 -1 22 -8 21 -24 -1 -20 3 -22 45 -19 41 3 46 6 46 26 0
13 8 28 18 33 14 9 17 6 17 -21 0 -16 5 -30 10 -30 6 0 10 5 10 11 0 6 7 8 17
5 20 -8 209 11 240 24 18 7 23 18 23 46 0 34 -2 35 -27 30 -16 -3 -113 -17
-218 -31 -104 -14 -200 -27 -212 -30 -13 -3 -23 -1 -23 5 0 5 11 10 24 10 14
0 32 7 40 16 9 8 16 11 16 5 0 -23 19 -9 23 17 l4 27 2 -29 c1 -26 4 -28 28
-21 15 3 31 11 34 17 4 7 8 6 10 -1 3 -9 25 -9 84 -1 108 15 113 17 118 48 l4
27 2 -29 c1 -26 3 -28 32 -22 17 3 38 6 45 6 9 0 14 12 14 35 0 19 -3 35 -7
35 -5 -1 -27 -5 -50 -9 -24 -5 -43 -5 -43 -1 0 7 36 13 144 26 30 3 55 12 63
22 9 13 12 13 13 3 0 -14 9 -13 150 6 25 3 43 3 40 0 -3 -3 -47 -11 -98 -18
l-92 -12 0 -78 c0 -54 4 -79 12 -79 6 0 51 5 99 11 l88 11 4 37 4 36 1 -36 2
-36 47 8 c25 5 47 10 48 12 1 1 5 19 9 40 7 35 6 37 -16 33 -47 -10 -175 -27
-233 -31 -82 -6 -28 12 66 21 67 6 68 7 72 38 l4 31 1 -33 c2 -27 6 -32 20
-28 9 2 31 7 49 11 25 5 33 12 36 33 4 25 4 25 6 -4 1 -31 2 -32 39 -24 20 5
65 11 99 15 35 4 63 10 64 13 0 4 2 22 3 40 4 32 3 32 -33 26 -20 -3 -44 -8
-53 -11 -10 -2 -18 0 -18 5 0 5 23 12 52 15 28 4 56 12 61 19 5 8 10 9 13 3 4
-11 63 -9 94 2 8 3 31 6 50 8 63 5 145 16 163 21 9 3 17 1 17 -5 0 -6 -15 -11
-34 -11 -42 0 -66 -21 -59 -52 4 -22 4 -22 -11 -4 -12 15 -13 22 -4 27 23 14
1 20 -51 13 l-51 -7 0 -38 c0 -36 2 -39 23 -35 12 3 61 10 110 17 86 12 87 13
87 41 0 15 4 28 8 28 5 0 7 -13 4 -28 -4 -28 -4 -28 45 -23 47 6 48 7 51 44 4
41 -2 44 -70 28 -21 -5 -38 -5 -38 -1 0 8 49 20 85 20 13 0 26 7 29 16 5 13 9
14 20 4 18 -14 106 -3 106 13 0 7 3 8 10 1 7 -7 84 0 238 23 125 19 258 38
296 43 38 4 73 14 77 22 6 9 11 10 19 2 14 -14 110 0 122 18 5 9 8 9 8 1 0
-14 113 -6 118 9 2 4 8 6 12 3 14 -9 230 23 246 36 12 10 14 4 14 -36 l0 -48
48 7 c26 3 70 9 97 12 l50 5 90 -76 c50 -42 93 -79 97 -83 4 -4 10 -187 13
-407 4 -220 8 -420 10 -445 2 -25 4 -97 4 -159 1 -87 4 -112 13 -103 7 7 11
50 11 118 -1 59 3 119 7 135 6 20 4 29 -6 33 -17 6 -20 81 -4 91 7 5 8 11 1
19 -5 6 -9 73 -9 148 1 130 8 176 26 153 4 -6 19 -18 35 -28 21 -14 27 -15 27
-3 0 7 -6 19 -14 25 -11 9 -12 20 -5 43 4 17 6 36 2 41 -9 16 -11 67 -2 67 4
0 5 16 2 35 -3 19 -2 42 1 52 16 40 24 -16 22 -159 0 -80 2 -142 5 -136 5 8
53 -25 89 -62 3 -3 19 -12 35 -20 25 -13 31 -24 36 -60 l6 -45 1 39 2 38 26
-17 c29 -19 43 -13 24 10 -7 8 -10 29 -8 47 3 17 2 47 -2 65 -5 18 -4 33 0 33
4 0 6 17 3 39 -3 23 -1 41 6 45 8 5 11 -19 12 -81 1 -48 2 -92 4 -98 1 -5 3
-29 3 -51 2 -36 7 -45 42 -68 45 -30 60 -32 60 -11 0 8 -7 15 -15 15 -17 0
-21 45 -5 55 7 4 7 11 2 18 -12 15 -13 135 -1 143 5 3 9 15 9 28 0 20 -14 36
-99 106 -13 11 -21 20 -17 20 12 0 70 -42 79 -57 4 -7 16 -13 26 -13 10 0 21
-8 23 -18 6 -21 51 -32 131 -32 l47 0 0 740 0 740 -475 0 -475 0 0 -55 c0 -42
-3 -55 -15 -55 -12 0 -15 13 -15 55 l0 55 -50 0 c-38 0 -50 -4 -50 -15 0 -10
-10 -15 -30 -15 -22 0 -28 4 -24 15 5 13 -91 15 -829 15 l-836 0 -3 -52 c-4
-74 -28 -77 -28 -4 l0 56 -615 0 -615 0 0 -320z"/>
<path d="M52 1658 l-52 -10 0 -209 0 -210 57 7 c32 3 59 7 60 8 1 0 4 97 7
214 4 163 3 212 -7 211 -7 -1 -36 -6 -65 -11z"/>
<path d="M3101 1376 c-12 -15 -17 -73 -13 -180 l2 -68 48 6 c76 11 112 79 38
73 l-31 -2 -3 93 c-2 69 -6 92 -16 92 -8 0 -19 -6 -25 -14z"/>
<path d="M2105 1345 c-121 -19 -223 -34 -226 -34 -3 -1 -6 -17 -7 -37 l-1 -36
67 7 c37 5 75 8 85 9 9 0 17 6 17 13 0 8 13 13 35 13 31 0 35 3 36 28 l1 27 7
-25 c6 -25 8 -25 58 -17 46 7 52 11 56 35 l4 27 2 -27 c1 -25 3 -26 39 -22 76
11 79 12 80 44 1 36 26 37 -253 -5z"/>
<path d="M2964 1335 c-15 -36 -54 -189 -54 -212 0 -19 29 -15 58 8 25 19 27
19 39 3 11 -14 17 -15 38 -6 14 6 25 19 25 29 0 36 -65 213 -78 213 -7 0 -20
-16 -28 -35z"/>
<path d="M2838 1351 c-64 -9 -73 -20 -69 -89 1 -19 5 -22 21 -17 18 6 20 2 21
-57 1 -35 1 -69 0 -76 -2 -9 6 -12 21 -10 21 3 23 9 26 63 2 58 8 79 39 138
14 27 12 58 -4 56 -4 -1 -29 -5 -55 -8z"/>
<path d="M2585 1313 c-31 -8 -35 -21 -35 -135 0 -100 1 -108 19 -108 11 0 23
9 26 21 4 11 18 24 31 30 14 5 22 14 19 19 -4 6 -2 17 4 24 6 7 13 37 17 67 9
76 -13 99 -81 82z"/>
<path d="M2437 1285 c-24 -24 -32 -92 -13 -120 9 -14 11 -25 5 -27 -6 -2 -13
-23 -16 -47 l-6 -44 44 6 c57 8 72 28 65 92 -8 65 -8 104 -1 133 5 20 2 22
-29 22 -19 0 -41 -7 -49 -15z"/>
<path d="M2268 1263 c-43 -49 -54 -144 -23 -203 15 -28 20 -31 47 -26 17 3 37
6 44 6 44 0 62 165 23 214 -24 31 -68 35 -91 9z"/>
<path d="M2170 1221 c0 -36 -3 -40 -31 -46 -41 -9 -45 -4 -48 51 0 14 -5 22
-11 19 -6 -4 -10 -55 -10 -121 0 -95 3 -114 15 -114 9 0 15 9 15 23 0 33 15
49 41 45 18 -2 25 -10 27 -31 5 -39 27 -28 29 14 4 60 -9 199 -18 199 -5 0 -9
-18 -9 -39z"/>
<path d="M2030 1202 c0 -9 -10 -12 -30 -8 -17 2 -30 0 -30 -6 0 -6 -20 -8 -52
-4 -38 4 -47 3 -33 -4 14 -6 5 -8 -32 -3 l-53 6 0 -52 c0 -56 1 -56 72 -45 36
6 37 8 41 53 l3 46 2 -47 2 -47 38 5 c20 3 45 7 55 9 9 2 17 0 17 -5 0 -4 -52
-13 -115 -20 l-115 -13 0 -43 c0 -35 3 -42 18 -39 9 2 34 7 54 10 34 5 37 9
41 43 l4 37 1 -38 2 -37 58 6 c31 4 59 8 60 10 10 7 11 167 3 182 -7 11 -11
12 -11 4z"/>
<path d="M1739 1166 c-2 -2 -26 -6 -54 -9 -61 -6 -212 -26 -242 -33 -20 -4
-23 -11 -23 -50 l0 -47 38 7 c20 3 45 6 55 6 13 0 17 9 19 38 1 36 1 36 5 5 4
-29 8 -33 32 -33 16 0 42 3 57 6 27 5 29 9 26 44 -2 21 1 41 7 44 7 5 11 -8
11 -40 0 -43 2 -46 23 -40 12 3 34 6 50 6 26 0 27 2 27 50 0 35 -4 50 -13 50
-8 0 -16 -2 -18 -4z"/>
<path d="M1345 1113 c-16 -2 -75 -11 -130 -20 -55 -8 -111 -16 -124 -17 -28
-1 -40 -24 -20 -37 7 -4 10 -11 7 -15 -4 -3 -82 -16 -173 -27 l-165 -20 0 -75
c0 -62 2 -73 15 -68 9 3 53 8 98 10 l82 5 -95 -14 c-52 -7 -96 -14 -97 -14 -2
-1 -3 -17 -3 -37 0 -29 3 -35 16 -30 9 3 28 6 44 6 24 0 29 5 33 28 l4 27 2
-28 c0 -16 5 -26 10 -23 4 3 39 8 77 12 123 11 138 16 145 49 6 29 10 27 13
-5 1 -18 67 -15 78 4 9 13 10 60 3 68 -3 3 -23 2 -45 -2 -38 -7 -40 -6 -41 19
-1 14 -2 38 -3 54 -2 25 0 27 39 25 35 -1 36 -2 8 -5 -33 -4 -42 -20 -35 -60
4 -19 9 -21 36 -16 36 7 45 18 39 44 -3 11 0 19 7 19 7 0 10 -11 8 -27 -2 -15
2 -28 10 -30 6 -3 10 1 9 9 -2 7 -2 10 0 6 3 -5 22 -8 44 -8 39 0 39 0 39 40
l0 40 -62 -5 -63 -4 65 12 65 12 -3 38 c-2 21 1 37 7 37 6 0 11 -17 11 -38 l0
-38 48 6 47 5 3 48 c2 34 0 47 -10 46 -7 -1 -26 -4 -43 -6z"/>
<path d="M1698 1053 l-28 -4 0 -91 0 -91 38 7 c20 3 43 6 50 6 9 0 12 25 12
90 0 100 4 94 -72 83z"/>
<path d="M1545 1035 c-49 -8 -98 -14 -107 -14 -14 -1 -18 -10 -18 -40 l0 -39
43 5 c64 7 70 10 64 38 -2 14 0 28 4 31 5 3 9 -10 9 -29 l0 -34 53 9 c28 5 53
10 54 11 7 8 6 71 -2 72 -5 1 -50 -3 -100 -10z"/>
<path d="M1312 1002 c-8 -6 -13 -35 -14 -88 -1 -73 -2 -76 -12 -41 -9 36 -12
38 -39 33 -16 -3 -39 -6 -51 -6 -18 0 -21 -5 -20 -42 1 -24 4 -42 8 -42 3 1
43 5 89 8 136 12 127 5 127 102 l0 84 -37 0 c-21 0 -44 -4 -51 -8z"/>
<path d="M1945 989 c-33 -4 -79 -11 -102 -14 l-43 -6 0 -47 c0 -26 4 -42 8
-37 4 6 25 11 47 13 22 2 45 8 52 14 9 7 13 7 13 -1 0 -18 38 -13 43 7 4 13 5
13 6 2 1 -12 10 -15 41 -12 l40 4 0 44 c0 50 4 48 -105 33z"/>
<path d="M410 934 c-140 -18 -261 -33 -267 -34 -21 0 -16 -58 5 -63 16 -4 16
-5 0 -6 -10 0 -18 -7 -19 -13 0 -7 -3 -42 -6 -77 l-5 -64 32 7 c18 3 38 6 45
6 8 0 12 10 10 25 -1 14 2 25 6 25 5 0 9 -10 9 -23 0 -22 3 -23 42 -18 30 4
44 11 46 24 2 9 -1 17 -7 17 -6 0 -11 -5 -11 -11 0 -5 -4 -7 -10 -4 -18 11
-10 25 15 25 20 0 25 -5 26 -27 2 -25 2 -24 9 7 7 31 7 32 9 8 0 -16 7 -28 14
-28 23 0 181 21 185 25 2 2 -1 13 -8 24 -9 17 -8 21 5 21 10 0 15 -9 15 -26 0
-20 4 -25 16 -20 9 3 23 6 33 6 22 0 25 37 3 43 -15 4 -15 5 1 6 14 1 17 11
17 52 l0 51 -52 -5 -53 -6 52 11 c45 9 52 14 56 37 2 14 5 -4 6 -41 1 -65 2
-67 29 -71 l27 -4 -27 -2 c-28 -1 -28 -1 -30 -78 -1 -43 -3 -61 -5 -40 -4 32
-7 36 -26 32 -17 -4 -457 -55 -473 -55 -2 0 -4 -18 -4 -41 0 -34 3 -40 18 -35
9 3 89 12 177 21 227 22 223 21 228 53 l4 27 2 -28 c1 -31 -5 -30 134 -11 l37
6 0 78 c0 66 -3 79 -17 83 -17 4 -17 5 0 6 14 1 17 11 17 71 0 84 38 80 -310
34z"/>
<path d="M1508 937 l-88 -9 0 -45 c0 -38 3 -44 18 -39 9 3 41 6 70 7 28 1 52
6 52 11 0 5 9 6 20 3 11 -4 33 -4 48 0 25 5 28 10 27 45 0 46 7 45 -147 27z"/>
<path d="M90 895 c-8 -2 -32 -6 -52 -10 -32 -5 -38 -10 -38 -30 0 -31 17 -33
23 -2 2 12 4 -5 4 -38 0 -33 -2 -45 -4 -27 -6 43 -23 41 -23 -3 0 -24 5 -35
15 -35 8 0 15 -4 15 -10 0 -5 -7 -7 -15 -4 -8 4 -15 1 -15 -5 0 -6 4 -11 9
-11 15 0 19 -61 4 -67 -7 -3 -13 -20 -13 -40 l0 -34 47 7 c27 4 50 10 53 15 6
8 13 300 8 298 -2 -1 -10 -3 -18 -4z"/>
<path d="M1130 784 c-52 -7 -147 -18 -210 -24 -186 -18 -180 -16 -180 -61 0
-44 -5 -42 100 -29 41 6 91 12 110 14 19 3 60 7 90 10 146 13 187 17 215 22
25 3 26 3 9 -5 -12 -5 -57 -12 -100 -16 -43 -4 -81 -10 -84 -14 -3 -4 -21 -8
-40 -9 -81 -7 -292 -31 -295 -34 -2 -2 -5 -87 -9 -190 -5 -173 -4 -188 12
-188 28 0 254 19 295 25 30 4 37 2 37 -11 0 -13 8 -15 35 -12 19 2 35 1 35 -3
0 -4 -18 -9 -40 -11 -28 -2 -40 0 -40 9 0 9 -8 12 -22 9 -13 -3 -89 -10 -170
-17 l-148 -12 0 -38 c0 -31 4 -38 23 -42 l22 -4 -22 -2 c-20 -1 -23 -6 -23
-45 0 -26 5 -46 13 -49 10 -4 10 -6 0 -6 -7 -1 -13 -12 -13 -26 0 -23 3 -25
49 -25 43 0 50 3 54 23 l4 22 2 -22 c1 -22 4 -23 101 -23 73 0 100 3 100 13 0
8 4 7 10 -3 9 -13 11 -13 20 0 6 10 10 11 10 3 0 -8 15 -13 39 -13 22 0 42 5
44 13 4 10 6 10 6 0 1 -17 38 -17 44 0 4 9 6 9 6 0 1 -8 14 -13 31 -13 25 0
30 4 30 25 0 21 -4 24 -27 20 -16 -2 -63 -6 -105 -9 l-78 -6 0 33 c0 23 3 28
9 18 5 -8 7 -20 4 -26 -3 -9 8 -11 44 -8 26 3 49 6 50 7 0 0 3 17 5 36 3 31 7
36 38 41 43 8 62 -1 29 -14 l-24 -9 24 -9 c19 -8 21 -12 11 -24 -10 -12 -10
-15 2 -15 16 0 27 93 28 240 l0 66 -112 -13 c-61 -7 -114 -10 -117 -8 -2 3 0
10 6 16 6 6 9 19 6 28 -4 14 -3 14 6 1 6 -8 25 -15 43 -15 32 0 33 2 39 45 l6
45 1 -47 c2 -61 22 -63 22 -3 0 43 1 45 30 45 17 0 30 -4 30 -10 0 -5 -7 -10
-15 -10 -17 0 -19 -9 -5 -30 9 -13 11 -13 20 0 5 8 10 10 10 4 0 -5 -6 -16
-12 -23 -11 -10 -8 -12 12 -9 l25 3 3 208 3 207 -33 -1 c-18 -1 -76 -7 -128
-15z"/>
<path d="M408 607 l-288 -31 0 -184 0 -184 89 6 c49 4 106 9 127 11 22 1 109
9 194 15 85 7 163 17 173 22 14 7 17 23 17 100 l0 91 -42 -6 c-27 -4 -37 -2
-27 4 7 5 26 9 42 9 l27 0 0 90 c0 66 -3 90 -12 89 -7 -1 -142 -15 -300 -32z"/>
<path d="M10 560 c-10 -7 -11 -10 -2 -10 9 0 12 -40 10 -175 l-3 -176 40 3 40
3 3 183 2 182 -37 0 c-21 0 -45 -5 -53 -10z"/>
<path d="M405 213 c-154 -13 -281 -25 -282 -27 -2 -1 -4 -40 -5 -87 l-3 -84
32 3 c17 2 34 -1 38 -7 10 -17 322 -15 328 2 4 9 6 9 6 0 1 -8 17 -13 45 -13
34 0 46 4 49 17 4 17 5 17 6 1 1 -14 10 -18 46 -18 l45 0 0 120 c0 90 -3 120
-12 119 -7 -1 -139 -13 -293 -26z"/>
<path d="M40 181 c-28 -4 -40 -9 -32 -14 7 -5 12 -27 11 -55 -1 -42 -2 -44 -9
-17 -6 24 -8 17 -9 -32 l-1 -63 44 0 c31 0 46 5 50 16 9 23 7 174 -1 172 -5 0
-28 -4 -53 -7z"/>
<path d="M3875 98 c-376 -25 -1252 -78 -1295 -78 -28 0 -50 -4 -50 -10 0 -7
212 -10 615 -10 403 0 615 3 615 10 0 6 9 10 20 10 11 0 20 -4 20 -10 0 -6 30
-10 71 -10 57 0 75 4 85 18 13 16 13 16 14 0 0 -15 9 -18 45 -18 l45 0 0 55
c0 54 -1 55 -27 54 -16 -1 -86 -6 -158 -11z"/>
</g>
</svg>
